<?xml version="1.0" encoding="UTF-8"?>
<svg version="1.1" xmlns="http://www.w3.org/2000/svg" width="50" height="50">
<path d="M0 0 C16.5 0 33 0 50 0 C50 16.5 50 33 50 50 C33.5 50 17 50 0 50 C0 33.5 0 17 0 0 Z " fill="#586FF3" transform="translate(0,0)"/>
<path d="M0 0 C1.18464844 -0.01417969 2.36929687 -0.02835937 3.58984375 -0.04296875 C7.16421367 0.1942504 11.39407199 0.51907199 14.0625 3.1875 C14.24176852 5.43276468 14.33061465 7.68552739 14.375 9.9375 C14.43107422 11.78601563 14.43107422 11.78601563 14.48828125 13.671875 C13.99865048 17.71469786 12.85441696 19.30196847 10.0625 22.1875 C11.0525 22.5175 12.0425 22.8475 13.0625 23.1875 C13.7225 22.5275 14.3825 21.8675 15.0625 21.1875 C18.1875 21.0625 18.1875 21.0625 21.0625 21.1875 C19.7425 22.1775 18.4225 23.1675 17.0625 24.1875 C17.33867533 26.12824861 17.33867533 26.12824861 18.0625 28.1875 C19.0525 28.8475 20.0425 29.5075 21.0625 30.1875 C19.25 30.875 19.25 30.875 17.0625 31.1875 C15.3125 29.9375 15.3125 29.9375 14.0625 28.1875 C14.0625 27.1975 14.0625 26.2075 14.0625 25.1875 C12.4125 25.5175 10.7625 25.8475 9.0625 26.1875 C10.3825 26.5175 11.7025 26.8475 13.0625 27.1875 C12.0625 28.1875 12.0625 28.1875 9.5 28.25 C8.695625 28.229375 7.89125 28.20875 7.0625 28.1875 C7.41036708 30.16286745 7.41036708 30.16286745 8.0625 32.1875 C8.7225 32.5175 9.3825 32.8475 10.0625 33.1875 C10.0625 33.8475 10.0625 34.5075 10.0625 35.1875 C5.32510015 37.71411325 0.30489414 37.76714683 -4.9375 37.1875 C-7.24609375 36.171875 -7.24609375 36.171875 -8.9375 35.1875 C-8.9375 34.8575 -8.9375 34.5275 -8.9375 34.1875 C-7.27138095 34.144779 -5.60367115 34.14686168 -3.9375 34.1875 C-3.6075 34.5175 -3.2775 34.8475 -2.9375 35.1875 C-0.60452567 35.22842937 1.72955225 35.22991723 4.0625 35.1875 C4.3925 34.1975 4.7225 33.2075 5.0625 32.1875 C-0.15728653 29.91220843 -4.47002926 30.04796399 -9.9375 31.1875 C-10.2675 31.5175 -10.5975 31.8475 -10.9375 32.1875 C-9.6175 32.5175 -8.2975 32.8475 -6.9375 33.1875 C-10.77075617 35.89332788 -13.26288149 36.51363618 -17.9375 36.1875 C-17.298125 35.775 -16.65875 35.3625 -16 34.9375 C-13.72759069 33.00939513 -13.33553561 32.07325819 -12.9375 29.1875 C-14.5875 28.8575 -16.2375 28.5275 -17.9375 28.1875 C-17.6075 27.5275 -17.2775 26.8675 -16.9375 26.1875 C-16.09445313 26.2596875 -15.25140625 26.331875 -14.3828125 26.40625 C-13.28710938 26.4990625 -12.19140625 26.591875 -11.0625 26.6875 C-9.42667969 26.82671875 -9.42667969 26.82671875 -7.7578125 26.96875 C-6.15420436 27.09312958 -4.54592449 27.1875 -2.9375 27.1875 C-2.9375 26.8575 -2.9375 26.5275 -2.9375 26.1875 C0.0325 25.5275 3.0025 24.8675 6.0625 24.1875 C6.0625 23.5275 6.0625 22.8675 6.0625 22.1875 C2.1025 22.1875 -1.8575 22.1875 -5.9375 22.1875 C-5.6075 23.5075 -5.2775 24.8275 -4.9375 26.1875 C-6.2575 25.8575 -7.5775 25.5275 -8.9375 25.1875 C-9.06125 24.32125 -9.06125 24.32125 -9.1875 23.4375 C-9.77363425 21.02397546 -9.77363425 21.02397546 -11.9609375 19.4921875 C-14.68894326 16.31131122 -14.40735262 14.19290027 -14.3125 10.0625 C-14.29960937 8.82242187 -14.28671875 7.58234375 -14.2734375 6.3046875 C-13.9375 3.1875 -13.9375 3.1875 -11.9375 1.1875 C-7.97498149 0.07855988 -4.09787925 0.0222469 0 0 Z " fill="#9BA4B4" transform="translate(21.9375,1.8125)"/>
<path d="M0 0 C4.31236921 -0.08789715 8.6245045 -0.1406923 12.9375 -0.1875 C14.14986328 -0.21263672 15.36222656 -0.23777344 16.61132812 -0.26367188 C23.77509698 -0.3219139 29.35853783 0.27033756 36 3 C36.495 5.475 36.495 5.475 37 8 C36.4121875 7.01 36.4121875 7.01 35.8125 6 C34.14583333 3.70833333 34.14583333 3.70833333 31.3125 3.75 C30.549375 3.8325 29.78625 3.915 29 4 C29 3.34 29 2.68 29 2 C24.38 2 19.76 2 15 2 C14.67 2.66 14.34 3.32 14 4 C11.4375 4.625 11.4375 4.625 9 5 C8.91902676 7.27024968 8.86082296 9.54132075 8.8125 11.8125 C8.77769531 13.07707031 8.74289062 14.34164063 8.70703125 15.64453125 C8.70289977 18.9199765 8.70289977 18.9199765 10.32421875 20.82421875 C11.8665509 21.90636788 13.43233351 22.95488901 15 24 C14.01 24 13.02 24 12 24 C13.72226496 27.24849977 13.72226496 27.24849977 17 28 C16.67 26.68 16.34 25.36 16 24 C19.96 24 23.92 24 28 24 C28.33 24.99 28.66 25.98 29 27 C28.0925 27.28875 27.185 27.5775 26.25 27.875 C23.1331903 28.85360549 23.1331903 28.85360549 20.9375 30.125 C17.4129811 31.71671821 14.58331148 31.19443716 11 30 C9.00326516 29.64763503 7.00349261 29.31165441 5 29 C6.32 29.66 7.64 30.32 9 31 C8.8125 33.375 8.8125 33.375 8 36 C5.4375 37.3125 5.4375 37.3125 3 38 C3 37.01 3 36.02 3 35 C4.32 35 5.64 35 7 35 C7 34.01 7 33.02 7 32 C5.02 32 3.04 32 1 32 C-0.13917218 28.58248347 -0.11338481 25.96512063 -0.09765625 22.36328125 C-0.09443359 21.06455078 -0.09121094 19.76582031 -0.08789062 18.42773438 C-0.07953531 17.05598892 -0.07107037 15.68424413 -0.0625 14.3125 C-0.05748335 12.92903805 -0.05292073 11.54557437 -0.04882812 10.16210938 C-0.03702529 6.77469605 -0.02056019 3.38736967 0 0 Z " fill="#576DED" transform="translate(0,0)"/>
<path d="M0 0 C0.80695312 -0.01546875 1.61390625 -0.0309375 2.4453125 -0.046875 C6.2532418 -0.02174015 8.36009937 0.05137938 11.53515625 2.27734375 C13.95092363 5.94286812 13.48122543 8.1689711 13 12.5 C11.18836733 15.17431489 10.12238923 15.45920359 7 16.5 C4.5464199 16.69741449 2.08570681 16.81215287 -0.375 16.875 C-2.33566406 16.94847656 -2.33566406 16.94847656 -4.3359375 17.0234375 C-8.86447103 16.37650414 -10.26051864 15.09199549 -13 11.5 C-13.60562611 7.66436795 -13.72316825 5.57228396 -11.52734375 2.31640625 C-7.78964674 -0.36988294 -4.49112523 -0.08609186 0 0 Z " fill="#3C4661" transform="translate(22,5.5)"/>
<path d="M0 0 C0.99 0.33 1.98 0.66 3 1 C3.49230769 8.38461538 3.49230769 8.38461538 1 11.5 C0.34 11.995 -0.32 12.49 -1 13 C2.465 12.505 2.465 12.505 6 12 C6.66 13.32 7.32 14.64 8 16 C7.360625 16.103125 6.72125 16.20625 6.0625 16.3125 C5.381875 16.539375 4.70125 16.76625 4 17 C3.505 18.485 3.505 18.485 3 20 C4.98 20 6.96 20 9 20 C9 20.99 9 21.98 9 23 C4.61501596 25.92332269 1.2225328 25.1356502 -4 25 C-3.67 29.95 -3.34 34.9 -3 40 C-6.3 40 -9.6 40 -13 40 C-13 38.02 -13 36.04 -13 34 C-9.535 34.495 -9.535 34.495 -6 35 C-6 33.35 -6 31.7 -6 30 C-8.3431213 30.25561323 -10.67843403 30.59270772 -13 31 C-13.33 31.66 -13.66 32.32 -14 33 C-14.66 32.67 -15.32 32.34 -16 32 C-16.33 32.99 -16.66 33.98 -17 35 C-17 33.68 -17 32.36 -17 31 C-19.31 30.67 -21.62 30.34 -24 30 C-24 31.65 -24 33.3 -24 35 C-22.68 35.33 -21.36 35.66 -20 36 C-20.804375 36.12375 -21.60875 36.2475 -22.4375 36.375 C-23.283125 36.58125 -24.12875 36.7875 -25 37 C-25.33 37.66 -25.66 38.32 -26 39 C-23.36 39 -20.72 39 -18 39 C-18.495 37.515 -18.495 37.515 -19 36 C-18.34 36 -17.68 36 -17 36 C-17 37.32 -17 38.64 -17 40 C-20.3 40 -23.6 40 -27 40 C-26.67 36.7 -26.34 33.4 -26 30 C-26.78375 30.20625 -27.5675 30.4125 -28.375 30.625 C-29.24125 30.74875 -30.1075 30.8725 -31 31 C-31.66 30.34 -32.32 29.68 -33 29 C-30.69 28.34 -28.38 27.68 -26 27 C-26 26.34 -26 25.68 -26 25 C-25.67 24.01 -25.34 23.02 -25 22 C-25 22.66 -25 23.32 -25 24 C-24.40832031 23.855625 -23.81664062 23.71125 -23.20703125 23.5625 C-14.3772547 21.48829474 -14.3772547 21.48829474 -11 22 C-10.34 22.99 -9.68 23.98 -9 25 C-9.66 26.32 -10.32 27.64 -11 29 C-14 29 -17 29 -20 29 C-12.43592467 29.20589721 -12.43592467 29.20589721 -5 28 C-5 27.34 -5 26.68 -5 26 C-5.99 25.67 -6.98 25.34 -8 25 C-8 23.68 -8 22.36 -8 21 C-6.35 20.67 -4.7 20.34 -3 20 C-5.97 20 -8.94 20 -12 20 C-12 19.67 -12 19.34 -12 19 C-8.37 18.67 -4.74 18.34 -1 18 C-0.566875 18.825 -0.13375 19.65 0.3125 20.5 C0.869375 21.325 1.42625 22.15 2 23 C2.99 23 3.98 23 5 23 C3.68 22.01 2.36 21.02 1 20 C1.875 16.125 1.875 16.125 3 15 C0.24358584 15.49756092 0.24358584 15.49756092 -2 17 C-3.66617115 17.04063832 -5.33388095 17.042721 -7 17 C-7.33 16.01 -7.66 15.02 -8 14 C-6.824375 13.6596875 -6.824375 13.6596875 -5.625 13.3125 C-2.78125 12.21875 -2.78125 12.21875 -1.6875 9.375 C-1.460625 8.59125 -1.23375 7.8075 -1 7 C-0.34 7.33 0.32 7.66 1 8 C0.505 4.04 0.505 4.04 0 0 Z " fill="#374261" transform="translate(37,9)"/>
<path d="M0 0 C0.33 0.99 0.66 1.98 1 3 C2.98 3 4.96 3 7 3 C7 3.99 7 4.98 7 6 C5.68 6 4.36 6 3 6 C3.33 6.99 3.66 7.98 4 9 C7.28696233 9.79953138 8.71023192 10.09658936 12 9 C12.19622241 13.21878192 11.80230168 16.17010894 10 20 C13.3 20 16.6 20 20 20 C20 20.33 20 20.66 20 21 C13.4 21 6.8 21 0 21 C0 14.07 0 7.14 0 0 Z " fill="#576EF2" transform="translate(0,29)"/>
<path d="M0 0 C0.89460938 -0.00128906 1.78921875 -0.00257813 2.7109375 -0.00390625 C3.65195312 -0.00003906 4.59296875 0.00382813 5.5625 0.0078125 C6.97402344 0.00201172 6.97402344 0.00201172 8.4140625 -0.00390625 C9.75597656 -0.00197266 9.75597656 -0.00197266 11.125 0 C11.95128906 0.00112793 12.77757813 0.00225586 13.62890625 0.00341797 C15.5625 0.1328125 15.5625 0.1328125 16.5625 1.1328125 C16.60330783 3.13239614 16.60504356 5.13326504 16.5625 7.1328125 C12.8851718 8.29117088 9.39928577 8.26594128 5.5625 8.2578125 C3.7371875 8.26167969 3.7371875 8.26167969 1.875 8.265625 C-0.78500011 8.15897405 -2.91978971 7.92589124 -5.4375 7.1328125 C-5.48004356 5.13326504 -5.47830783 3.13239614 -5.4375 1.1328125 C-3.84812444 -0.45656306 -2.19850154 0.00300107 0 0 Z " fill="#647CA0" transform="translate(16.4375,7.8671875)"/>
<path d="M0 0 C0.99 0.33 1.98 0.66 3 1 C3.49230769 8.38461538 3.49230769 8.38461538 1 11.5 C0.34 11.995 -0.32 12.49 -1 13 C2.465 12.505 2.465 12.505 6 12 C6.66 13.32 7.32 14.64 8 16 C7.360625 16.103125 6.72125 16.20625 6.0625 16.3125 C5.381875 16.539375 4.70125 16.76625 4 17 C3.67 17.99 3.34 18.98 3 20 C4.98 20 6.96 20 9 20 C9 20.99 9 21.98 9 23 C5.68629 25.20914 4.6553979 25.22481553 0.8125 25.125 C-0.08855469 25.10695313 -0.98960938 25.08890625 -1.91796875 25.0703125 C-2.60503906 25.04710938 -3.29210938 25.02390625 -4 25 C-4 26.32 -4 27.64 -4 29 C-4.66 28.67 -5.32 28.34 -6 28 C-5.67 27.34 -5.34 26.68 -5 26 C-5.99 25.67 -6.98 25.34 -8 25 C-8 23.68 -8 22.36 -8 21 C-6.35 20.67 -4.7 20.34 -3 20 C-5.97 20 -8.94 20 -12 20 C-12 19.67 -12 19.34 -12 19 C-8.37 18.67 -4.74 18.34 -1 18 C-0.566875 18.825 -0.13375 19.65 0.3125 20.5 C0.869375 21.325 1.42625 22.15 2 23 C2.99 23 3.98 23 5 23 C3.68 22.01 2.36 21.02 1 20 C1.875 16.125 1.875 16.125 3 15 C0.24358584 15.49756092 0.24358584 15.49756092 -2 17 C-3.66617115 17.04063832 -5.33388095 17.042721 -7 17 C-7.33 16.01 -7.66 15.02 -8 14 C-6.824375 13.6596875 -6.824375 13.6596875 -5.625 13.3125 C-2.78125 12.21875 -2.78125 12.21875 -1.6875 9.375 C-1.460625 8.59125 -1.23375 7.8075 -1 7 C-0.34 7.33 0.32 7.66 1 8 C0.67 5.36 0.34 2.72 0 0 Z " fill="#3C4A68" transform="translate(37,9)"/>
<path d="M0 0 C3.465 1.485 3.465 1.485 7 3 C6.01 3.33 5.02 3.66 4 4 C5.72226496 7.24849977 5.72226496 7.24849977 9 8 C8.67 6.68 8.34 5.36 8 4 C11.96 4 15.92 4 20 4 C20.33 4.99 20.66 5.98 21 7 C20.0925 7.28875 19.185 7.5775 18.25 7.875 C15.1331903 8.85360549 15.1331903 8.85360549 12.9375 10.125 C9.4129811 11.71671821 6.58331148 11.19443716 3 10 C1.00326516 9.64763503 -0.99650739 9.31165441 -3 9 C-1.68 9.66 -0.36 10.32 1 11 C0.8125 13.375 0.8125 13.375 0 16 C-2.5625 17.3125 -2.5625 17.3125 -5 18 C-5 17.01 -5 16.02 -5 15 C-3.68 15 -2.36 15 -1 15 C-1 14.01 -1 13.02 -1 12 C-2.98 12 -4.96 12 -7 12 C-5.55746343 8.63408134 -3.66735273 6.48952921 -1 4 C-0.34 4.33 0.32 4.66 1 5 C0.67 3.35 0.34 1.7 0 0 Z " fill="#334A5B" transform="translate(8,20)"/>
<path d="M0 0 C1.0725 0.165 2.145 0.33 3.25 0.5 C8.39667647 1.18622353 12.89673953 0.785117 18 0 C18 1.65 18 3.3 18 5 C16.02 5.33 14.04 5.66 12 6 C12 7.65 12 9.3 12 11 C10.35 11 8.7 11 7 11 C7 9.35 7 7.7 7 6 C6.67 6.99 6.34 7.98 6 9 C3.36 9 0.72 9 -2 9 C-1.67 8.443125 -1.34 7.88625 -1 7.3125 C0.1309601 4.69715478 0.15662974 2.8193354 0 0 Z " fill="#566AD2" transform="translate(13,39)"/>
<path d="M0 0 C0.495 2.475 0.495 2.475 1 5 C0.4121875 4.01 0.4121875 4.01 -0.1875 3 C-1.85416667 0.70833333 -1.85416667 0.70833333 -4.6875 0.75 C-5.450625 0.8325 -6.21375 0.915 -7 1 C-7 0.34 -7 -0.32 -7 -1 C-11.62 -1 -16.24 -1 -21 -1 C-21.33 -0.34 -21.66 0.32 -22 1 C-23.65 1.33 -25.3 1.66 -27 2 C-27.33 6.62 -27.66 11.24 -28 16 C-29.32 15.34 -30.64 14.68 -32 14 C-32 11.36 -32 8.72 -32 6 C-31.01 5.67 -30.02 5.34 -29 5 C-28.67 3.35 -28.34 1.7 -28 0 C-18.06073418 -4.03332526 -9.93926582 -4.03332526 0 0 Z " fill="#394F6F" transform="translate(36,3)"/>
<path d="M0 0 C0.33 0.66 0.66 1.32 1 2 C1.88751953 1.7834375 1.88751953 1.7834375 2.79296875 1.5625 C11.6227453 -0.51170526 11.6227453 -0.51170526 15 0 C15.66 0.99 16.32 1.98 17 3 C16.34 4.32 15.68 5.64 15 7 C10.10993503 7.28211913 7.71715351 7.20444268 4 4 C1.85266073 3.29485154 1.85266073 3.29485154 0 3 C0 2.01 0 1.02 0 0 Z " fill="#5A7384" transform="translate(11,31)"/>
<path d="M0 0 C0 1.65 0 3.3 0 5 C-5.19548425 7.20808081 -8.58264203 6.93402724 -14 6 C-14 4.66666667 -14 3.33333333 -14 2 C-12.4176994 1.66179834 -10.83410625 1.32964061 -9.25 1 C-8.36828125 0.814375 -7.4865625 0.62875 -6.578125 0.4375 C-4 0 -4 0 0 0 Z " fill="#475777" transform="translate(33,15)"/>
<path d="M0 0 C3.96 0 7.92 0 12 0 C12.33 0.99 12.66 1.98 13 3 C12.0925 3.28875 11.185 3.5775 10.25 3.875 C7.1331903 4.85360549 7.1331903 4.85360549 4.9375 6.125 C2.52612646 7.2140074 0.61567161 7.14531509 -2 7 C-2.66 5.68 -3.32 4.36 -4 3 C-1.525 3.495 -1.525 3.495 1 4 C0.67 2.68 0.34 1.36 0 0 Z " fill="#405D6E" transform="translate(16,24)"/>
<path d="M0 0 C4.62 0 9.24 0 14 0 C14.33 0.99 14.66 1.98 15 3 C12.07345473 3.97551509 10.05345004 4.16478088 7 4.1875 C5.700625 4.20876953 5.700625 4.20876953 4.375 4.23046875 C2 4 2 4 -1 2 C-0.67 1.34 -0.34 0.68 0 0 Z " fill="#7395A6" transform="translate(15,2)"/>
<path d="M0 0 C0.99 0.495 0.99 0.495 2 1 C4.3329866 1.04022391 6.66706666 1.04320247 9 1 C9.33 2.65 9.66 4.3 10 6 C6.7 6 3.4 6 0 6 C0 4.02 0 2.04 0 0 Z " fill="#273652" transform="translate(24,43)"/>
<path d="M0 0 C0.99 0.33 1.98 0.66 3 1 C3.49230769 8.38461538 3.49230769 8.38461538 1 11.5 C0.34 11.995 -0.32 12.49 -1 13 C-0.34 13.33 0.32 13.66 1 14 C-0.1875 15.5 -0.1875 15.5 -2 17 C-4.6875 17.1875 -4.6875 17.1875 -7 17 C-7.33 16.01 -7.66 15.02 -8 14 C-7.21625 13.773125 -6.4325 13.54625 -5.625 13.3125 C-2.78125 12.21875 -2.78125 12.21875 -1.6875 9.375 C-1.460625 8.59125 -1.23375 7.8075 -1 7 C-0.34 7.33 0.32 7.66 1 8 C0.67 5.36 0.34 2.72 0 0 Z " fill="#2C3D55" transform="translate(37,9)"/>
<path d="M0 0 C2.31 0.66 4.62 1.32 7 2 C6.67 3.32 6.34 4.64 6 6 C7.32 6.33 8.64 6.66 10 7 C6.16674383 9.70582788 3.67461851 10.32613618 -1 10 C-0.0409375 9.38125 -0.0409375 9.38125 0.9375 8.75 C3.20990931 6.82189513 3.60196439 5.88575819 4 3 C2.35 2.67 0.7 2.34 -1 2 C-0.67 1.34 -0.34 0.68 0 0 Z " fill="#C4CCDB" transform="translate(5,28)"/>
<path d="M0 0 C4.875 0.875 4.875 0.875 6 2 C6.07258946 4.18639453 6.08373783 6.37500389 6.0625 8.5625 C6.05347656 9.76003906 6.04445313 10.95757812 6.03515625 12.19140625 C6.02355469 13.11824219 6.01195312 14.04507812 6 15 C5.67 15 5.34 15 5 15 C4.34 11.7 3.68 8.4 3 5 C1.02 4.34 -0.96 3.68 -3 3 C-2.01 2.67 -1.02 2.34 0 2 C0 1.34 0 0.68 0 0 Z " fill="#D7E0E5" transform="translate(30,3)"/>
<path d="M0 0 C1.65 0.33 3.3 0.66 5 1 C5 1.66 5 2.32 5 3 C0.26260015 5.52661325 -4.75760586 5.57964683 -10 5 C-12.30859375 3.984375 -12.30859375 3.984375 -14 3 C-14 2.67 -14 2.34 -14 2 C-12.33388095 1.957279 -10.66617115 1.95936168 -9 2 C-8.67 2.33 -8.34 2.66 -8 3 C-5.66702567 3.04092937 -3.33294775 3.04241723 -1 3 C-0.67 2.01 -0.34 1.02 0 0 Z " fill="#B6BFC7" transform="translate(27,34)"/>
<path d="M0 0 C1.32 0 2.64 0 4 0 C4 0.66 4 1.32 4 2 C4.99 2.33 5.98 2.66 7 3 C5.576875 3.2784375 5.576875 3.2784375 4.125 3.5625 C0.61628301 4.73400805 0.61628301 4.73400805 -0.375 8.625 C-0.58125 9.73875 -0.7875 10.8525 -1 12 C-1.33 12 -1.66 12 -2 12 C-2.05395478 10.37536158 -2.09277195 8.75021459 -2.125 7.125 C-2.14820313 6.22007813 -2.17140625 5.31515625 -2.1953125 4.3828125 C-2 2 -2 2 0 0 Z " fill="#D8E1E6" transform="translate(10,3)"/>
<path d="M0 0 C1.4540625 0.0309375 1.4540625 0.0309375 2.9375 0.0625 C1.6175 1.0525 0.2975 2.0425 -1.0625 3.0625 C-0.78632467 5.00324861 -0.78632467 5.00324861 -0.0625 7.0625 C0.9275 7.7225 1.9175 8.3825 2.9375 9.0625 C1.125 9.75 1.125 9.75 -1.0625 10.0625 C-2.8125 9 -2.8125 9 -4.0625 7.0625 C-4.3125 3.9375 -4.3125 3.9375 -4.0625 1.0625 C-3.0625 0.0625 -3.0625 0.0625 0 0 Z " fill="#C6CEDD" transform="translate(40.0625,22.9375)"/>
<path d="M0 0 C2.31 0.66 4.62 1.32 7 2 C6.8125 4.375 6.8125 4.375 6 7 C3.4375 8.3125 3.4375 8.3125 1 9 C1 8.01 1 7.02 1 6 C2.32 6 3.64 6 5 6 C5 5.01 5 4.02 5 3 C3.02 3 1.04 3 -1 3 C-0.67 2.01 -0.34 1.02 0 0 Z " fill="#414C7F" transform="translate(2,29)"/>
<path d="M0 0 C2.31 0.33 4.62 0.66 7 1 C6.67 2.32 6.34 3.64 6 5 C4.02 5 2.04 5 0 5 C0 3.35 0 1.7 0 0 Z " fill="#CCD5DF" transform="translate(13,39)"/>
<path d="M0 0 C0 1.65 0 3.3 0 5 C-1.98 5.33 -3.96 5.66 -6 6 C-6 4.35 -6 2.7 -6 1 C-3.92446352 0.4465236 -2.15634036 0 0 0 Z " fill="#D2DCE6" transform="translate(31,39)"/>
<path d="M0 0 C0.99 0.99 1.98 1.98 3 3 C2.375 5.4375 2.375 5.4375 1 8 C-2.125 8.8125 -2.125 8.8125 -5 9 C-4.01 7.35 -3.02 5.7 -2 4 C-1.01 4.33 -0.02 4.66 1 5 C0.67 3.35 0.34 1.7 0 0 Z " fill="#212B47" transform="translate(8,20)"/>
<path d="M0 0 C0.33 0.99 0.66 1.98 1 3 C-1.64 3 -4.28 3 -7 3 C-7 2.34 -7 1.68 -7 1 C-4.53721199 -0.231394 -2.7204945 -0.07159196 0 0 Z " fill="#72B1C6" transform="translate(32,45)"/>
<path d="M0 0 C2.31 0.33 4.62 0.66 7 1 C7 1.66 7 2.32 7 3 C4.36 3 1.72 3 -1 3 C-0.67 2.01 -0.34 1.02 0 0 Z " fill="#71B0C5" transform="translate(12,45)"/>
<path d="M0 0 C0.53625 0.78375 1.0725 1.5675 1.625 2.375 C4.30242842 5.33426299 6.18433025 6.04608256 10 7 C10 7.33 10 7.66 10 8 C6.38102827 8.32899743 4.60496861 8.44576634 1.625 6.25 C0 4 0 4 0 0 Z " fill="#B4BDCB" transform="translate(8,15)"/>
<path d="M0 0 C1.5 1.125 1.5 1.125 3 3 C3.1875 6.1875 3.1875 6.1875 3 9 C2.01 9.495 2.01 9.495 1 10 C-0.60725635 6.78548731 -0.05748185 3.56387464 0 0 Z " fill="#658EA1" transform="translate(36,8)"/>
<path d="M0 0 C1.65 0.33 3.3 0.66 5 1 C5 1.66 5 2.32 5 3 C3.02 3.33 1.04 3.66 -1 4 C-0.67 2.68 -0.34 1.36 0 0 Z " fill="#D5DEE2" transform="translate(27,34)"/>
</svg>
