<svg version="1.1" id="Layer_1" xmlns="http://www.w3.org/2000/svg" xmlns:xlink="http://www.w3.org/1999/xlink" x="0px" y="0px"
	 width="100%" viewBox="0 0 130 147" enable-background="new 0 0 130 147" xml:space="preserve">
<path fill="#586FF3" opacity="1.000000" stroke="none" 
	d="
M131.000000,91.000000 
	C131.000000,109.984962 131.000000,128.969925 131.000000,147.977448 
	C87.716019,147.977448 44.432026,147.977448 1.074015,147.977448 
	C1.074015,99.088226 1.074015,50.176315 1.074015,1.132199 
	C44.210537,1.132199 87.421616,1.132199 131.000000,1.132199 
	C131.000000,30.353207 131.000000,59.707943 130.682907,89.313126 
	C128.572464,89.059700 126.787987,88.190659 124.983482,88.146873 
	C122.857727,88.095299 120.724106,88.964302 118.576790,89.063393 
	C115.414536,89.209328 112.568848,88.538589 111.858421,84.715134 
	C111.135841,80.826271 113.102631,78.701889 116.582664,77.768066 
	C118.500786,77.253365 120.613831,77.378029 122.463409,76.720497 
	C124.166954,76.114883 125.635605,74.848503 127.207733,73.873184 
	C126.114380,72.344147 125.332680,70.352760 123.872238,69.368324 
	C118.370041,65.659523 112.424751,65.448120 106.221588,67.728813 
	C104.561066,68.339333 102.602318,68.138733 100.398209,68.346542 
	C101.579811,63.397461 103.001747,60.457550 107.651886,60.132069 
	C108.973282,60.039581 111.028244,57.928509 111.232590,56.522987 
	C112.154839,50.179863 112.696579,43.764664 112.969757,37.358139 
	C113.024002,36.085850 111.402100,33.704556 110.375244,33.601151 
	C105.625519,33.122845 105.657593,29.587280 105.275681,26.409464 
	C104.241493,17.804335 99.840607,12.836919 91.168854,10.635647 
	C71.504028,5.643854 52.059990,5.567333 32.430775,10.723657 
	C24.585360,12.784539 19.778357,16.938381 18.797029,25.147659 
	C18.485865,27.750689 17.718681,29.614695 14.380571,30.126760 
	C12.747236,30.377314 10.335869,33.084053 10.283777,34.742168 
	C10.107958,40.338619 10.602997,45.991711 11.296456,51.566555 
	C11.712050,54.907585 13.645855,57.310528 17.503382,57.699177 
	C18.531635,57.802773 19.840088,58.905426 20.324923,59.891205 
	C21.615011,62.514263 22.526390,65.323578 23.577463,68.030762 
	C22.000877,69.197151 20.244951,69.912010 19.402411,71.216713 
	C14.786594,78.364479 10.285014,85.491417 4.031981,91.489227 
	C1.559056,93.861229 3.494815,96.603218 7.146690,96.322807 
	C9.788862,96.119919 12.383871,95.206596 15.022547,95.079300 
	C18.167789,94.927559 21.056498,95.780838 21.803101,99.485313 
	C22.590031,103.389870 20.409307,105.431107 17.000340,106.375313 
	C14.762209,106.995216 12.360280,107.057922 10.159889,107.767593 
	C8.745696,108.223701 6.694327,109.249092 6.510821,110.296532 
	C6.306707,111.461594 7.651519,113.222244 8.773544,114.211464 
	C10.106710,115.386848 11.848607,116.206528 13.539224,116.849442 
	C19.983517,119.300148 25.951765,117.678596 32.326824,113.759224 
	C32.128002,121.522636 35.853886,128.589355 29.553455,135.405151 
	C25.524185,139.764038 27.504572,144.758896 32.456470,144.926086 
	C39.277332,145.156387 46.112637,145.054321 52.939938,144.961166 
	C56.810635,144.908356 57.629028,142.645477 57.763550,138.990982 
	C57.972694,133.309357 58.992962,127.647598 59.893478,122.013229 
	C60.014809,121.254089 61.430359,120.204765 62.258877,120.193520 
	C63.111309,120.181969 64.618126,121.172073 64.738045,121.904160 
	C65.662102,127.545441 66.758827,133.219574 66.900604,138.905975 
	C66.992348,142.586014 67.725899,144.866531 71.578293,144.943741 
	C78.404182,145.080582 85.237610,145.108566 92.062180,144.944641 
	C96.175797,144.845825 97.819031,142.551880 96.528656,138.622070 
	C95.827156,136.485672 94.210808,134.662872 93.129425,132.633453 
	C92.389183,131.244263 91.276199,129.718689 91.334740,128.295395 
	C91.628555,121.151505 92.214340,114.018005 92.803757,106.889626 
	C92.892784,105.812950 93.233086,104.254654 93.981247,103.818825 
	C97.958748,101.501785 102.197136,99.845413 106.966942,100.791649 
	C119.056549,103.189980 124.424118,101.012054 131.000000,91.000000 
z"/>
<path fill="#1F293C" opacity="1.000000" stroke="none" 
	d="
M131.000000,90.750000 
	C124.424118,101.012054 119.056549,103.189980 106.966942,100.791649 
	C102.197136,99.845413 97.958748,101.501785 93.981247,103.818825 
	C93.233086,104.254654 92.892784,105.812950 92.803757,106.889626 
	C92.214340,114.018005 91.628555,121.151505 91.334740,128.295395 
	C91.276199,129.718689 92.389183,131.244263 93.129425,132.633453 
	C94.210808,134.662872 95.827156,136.485672 96.528656,138.622070 
	C97.819031,142.551880 96.175797,144.845825 92.062180,144.944641 
	C85.237610,145.108566 78.404182,145.080582 71.578293,144.943741 
	C67.725899,144.866531 66.992348,142.586014 66.900604,138.905975 
	C66.758827,133.219574 65.662102,127.545441 64.738045,121.904160 
	C64.618126,121.172073 63.111309,120.181969 62.258877,120.193520 
	C61.430359,120.204765 60.014809,121.254089 59.893478,122.013229 
	C58.992962,127.647598 57.972694,133.309357 57.763550,138.990982 
	C57.629028,142.645477 56.810635,144.908356 52.939938,144.961166 
	C46.112637,145.054321 39.277332,145.156387 32.456470,144.926086 
	C27.504572,144.758896 25.524185,139.764038 29.553455,135.405151 
	C35.853886,128.589355 32.128002,121.522636 32.326824,113.759224 
	C25.951765,117.678596 19.983517,119.300148 13.539224,116.849442 
	C11.848607,116.206528 10.106710,115.386848 8.773544,114.211464 
	C7.651519,113.222244 6.306707,111.461594 6.510821,110.296532 
	C6.694327,109.249092 8.745696,108.223701 10.159889,107.767593 
	C12.360280,107.057922 14.762209,106.995216 17.000340,106.375313 
	C20.409307,105.431107 22.590031,103.389870 21.803101,99.485313 
	C21.056498,95.780838 18.167789,94.927559 15.022547,95.079300 
	C12.383871,95.206596 9.788862,96.119919 7.146690,96.322807 
	C3.494815,96.603218 1.559056,93.861229 4.031981,91.489227 
	C10.285014,85.491417 14.786594,78.364479 19.402411,71.216713 
	C20.244951,69.912010 22.000877,69.197151 23.577463,68.030762 
	C22.526390,65.323578 21.615011,62.514263 20.324923,59.891205 
	C19.840088,58.905426 18.531635,57.802773 17.503382,57.699177 
	C13.645855,57.310528 11.712050,54.907585 11.296456,51.566555 
	C10.602997,45.991711 10.107958,40.338619 10.283777,34.742168 
	C10.335869,33.084053 12.747236,30.377314 14.380571,30.126760 
	C17.718681,29.614695 18.485865,27.750689 18.797029,25.147659 
	C19.778357,16.938381 24.585360,12.784539 32.430775,10.723657 
	C52.059990,5.567333 71.504028,5.643854 91.168854,10.635647 
	C99.840607,12.836919 104.241493,17.804335 105.275681,26.409464 
	C105.657593,29.587280 105.625519,33.122845 110.375244,33.601151 
	C111.402100,33.704556 113.024002,36.085850 112.969757,37.358139 
	C112.696579,43.764664 112.154839,50.179863 111.232590,56.522987 
	C111.028244,57.928509 108.973282,60.039581 107.651886,60.132069 
	C103.001747,60.457550 101.579811,63.397461 100.398209,68.346542 
	C102.602318,68.138733 104.561066,68.339333 106.221588,67.728813 
	C112.424751,65.448120 118.370041,65.659523 123.872238,69.368324 
	C125.332680,70.352760 126.114380,72.344147 127.207733,73.873184 
	C125.635605,74.848503 124.166954,76.114883 122.463409,76.720497 
	C120.613831,77.378029 118.500786,77.253365 116.582664,77.768066 
	C113.102631,78.701889 111.135841,80.826271 111.858421,84.715134 
	C112.568848,88.538589 115.414536,89.209328 118.576790,89.063393 
	C120.724106,88.964302 122.857727,88.095299 124.983482,88.146873 
	C126.787987,88.190659 128.572464,89.059700 130.682907,89.781784 
	C131.000000,90.000000 131.000000,90.500000 131.000000,90.750000 
M28.914431,67.114464 
	C28.914431,67.114464 28.753082,67.238014 29.170856,67.782295 
	C31.116806,68.472595 33.062752,69.162903 35.705017,70.188820 
	C39.813431,71.066719 43.921844,71.944611 48.846825,73.065613 
	C57.557919,73.011597 66.269012,72.957588 75.489548,73.001770 
	C75.653427,72.946510 75.817299,72.891258 76.791397,72.916069 
	C82.921097,70.995682 89.050804,69.075302 95.076683,67.064651 
	C95.076683,67.064651 95.139755,67.186913 95.762115,66.998741 
	C96.493126,65.995270 97.224129,64.991806 98.253235,63.401348 
	C98.620377,62.637878 98.987518,61.874405 99.764854,60.495838 
	C103.175636,50.094940 104.233040,39.519669 102.327354,28.675228 
	C100.194061,16.535612 97.861916,14.322123 85.139610,12.892035 
	C84.965263,14.261724 84.790337,15.636031 84.616257,17.003622 
	C83.212860,17.003622 82.058334,17.003622 81.120583,16.318617 
	C80.770592,14.845985 80.420609,13.373354 79.359512,11.532597 
	C67.514801,9.410799 55.685146,9.047503 43.212807,11.954381 
	C42.622471,13.061389 42.032131,14.168397 41.431526,15.294657 
	C46.118294,15.966125 50.051407,16.529617 53.989376,17.509817 
	C53.989376,17.509817 53.991005,17.926550 53.083439,18.111794 
	C50.086685,18.137949 47.089325,18.134989 44.093338,18.197723 
	C40.456654,18.273876 37.415482,17.792889 39.398109,12.027588 
	C32.577629,14.750441 24.919159,13.831203 22.773392,22.356030 
	C20.214407,32.522511 19.429287,42.696716 22.061592,53.729671 
	C23.291142,57.236073 24.520691,60.742470 25.914646,64.006027 
	C25.914646,64.006027 25.728546,64.233086 25.862684,64.894478 
	C26.837309,65.687119 27.811934,66.479767 28.914431,67.114464 
M33.467712,93.024124 
	C33.331844,92.985184 33.195976,92.946243 33.925278,92.801155 
	C35.610935,92.418198 37.296593,92.035233 39.749950,91.683350 
	C44.170345,90.908745 48.588367,90.120285 53.011578,89.362114 
	C67.106781,86.946098 81.192131,84.468994 95.306129,82.167870 
	C100.943207,81.248802 102.100151,83.054428 103.012962,88.263298 
	C103.611343,91.677872 105.823586,95.833893 108.616562,97.623688 
	C114.213600,101.210373 123.055481,97.513634 126.254372,91.069122 
	C119.843521,92.334885 112.147339,95.055504 109.186813,87.267044 
	C104.651405,75.335472 115.212921,74.972961 123.316933,73.113014 
	C114.988503,67.486694 106.893806,68.809555 101.251846,75.606812 
	C99.854996,77.289703 97.479263,78.738365 95.339172,79.133293 
	C80.131966,81.939613 64.854309,84.362007 49.633003,87.095474 
	C45.127930,87.904495 40.731686,89.319550 35.695576,90.567787 
	C34.463982,90.720467 33.232391,90.873146 31.440250,90.553658 
	C27.474522,89.340157 23.508158,88.128731 19.543217,86.912659 
	C14.308296,85.307098 9.830819,87.533585 7.695586,92.956818 
	C14.095203,92.215202 21.288542,89.041550 24.699059,97.808617 
	C25.420538,99.663246 25.759781,102.294067 24.993265,103.986794 
	C22.288815,109.959152 16.113651,109.982788 10.265970,110.962097 
	C17.874407,116.840645 26.493988,115.573853 32.312275,108.539574 
	C33.633808,106.941841 35.823002,105.496506 37.826889,105.119835 
	C51.213554,102.603531 64.665581,100.436790 78.073288,98.027954 
	C79.497246,97.772125 80.771881,96.685127 82.389725,95.265198 
	C81.926003,95.180939 81.462273,95.096672 80.189026,94.979736 
	C77.791466,95.307625 75.393898,95.635506 72.753380,95.476044 
	C72.504791,94.991989 72.256210,94.507927 72.771317,93.788925 
	C80.633919,92.421898 88.520508,91.172539 96.336960,89.579117 
	C97.740250,89.293045 98.854149,87.587387 100.101669,86.537163 
	C98.639053,85.915268 97.059067,84.566284 95.731445,84.780609 
	C76.032303,87.960777 56.355309,91.285454 36.717602,94.823105 
	C35.365398,95.066704 34.365536,97.266151 32.929638,99.862579 
	C32.835522,100.297371 32.741409,100.732162 31.917309,100.722343 
	C29.387691,97.728004 30.559452,95.243088 33.080463,92.979080 
	C33.080463,92.979080 33.129940,92.889145 33.467712,93.024124 
M34.442547,76.485176 
	C35.910645,79.511490 37.378738,82.537804 38.916180,85.707069 
	C42.676208,85.084198 46.336132,84.477913 50.674900,83.759171 
	C48.826996,82.422211 47.645851,81.567657 46.196945,80.030968 
	C45.206085,74.215172 40.048256,74.792656 36.103493,73.606476 
	C35.877773,73.538597 35.176022,75.053802 34.442547,76.485176 
M75.892204,131.397263 
	C79.756927,130.815094 83.621651,130.232941 88.225075,129.539505 
	C88.225075,125.710434 88.225075,121.808701 88.528687,117.358826 
	C88.528687,116.447594 88.528687,115.536362 88.528687,114.883797 
	C81.631454,116.797020 75.024872,118.629631 67.913605,120.602226 
	C68.861000,124.621986 69.850761,128.821457 70.919014,133.354004 
	C72.674248,132.562927 73.856407,132.030136 75.892204,131.397263 
M50.490173,131.966751 
	C51.534557,132.286804 52.578941,132.606857 53.878983,133.005249 
	C54.848381,128.529434 55.739594,124.414589 56.570057,120.580261 
	C49.415596,118.618820 42.910080,116.835297 36.224846,115.002495 
	C36.224846,115.874428 36.224846,116.963051 36.129589,118.939835 
	C36.324677,122.542625 36.519764,126.145409 36.709007,129.640213 
	C41.445438,130.329666 45.699856,130.948944 50.490173,131.966751 
M69.980385,116.330246 
	C75.039345,114.948814 80.132751,113.680061 85.145485,112.147423 
	C88.643570,111.077881 90.119987,108.507927 89.589615,105.111374 
	C87.426796,104.026764 85.304077,103.197105 83.438766,101.974678 
	C80.218155,99.864044 77.097549,100.752289 76.645401,104.530663 
	C76.053551,109.476486 73.291214,112.270790 68.081902,113.900284 
	C66.921356,113.943108 65.760391,114.031853 64.600342,114.021065 
	C58.359013,113.963043 51.632984,115.117004 48.384922,107.507607 
	C48.200497,107.075546 47.258083,106.645264 46.748695,106.725243 
	C43.105301,107.297310 39.482727,108.002014 35.853539,108.664566 
	C35.849422,109.164619 35.845310,109.664665 35.841194,110.164719 
	C46.049854,116.413498 57.214478,118.162819 69.980385,116.330246 
M46.992374,134.259705 
	C44.531723,133.941223 42.079262,133.463776 39.608761,133.336563 
	C34.065979,133.051178 31.807785,135.260498 31.324684,141.471069 
	C38.838448,141.471069 46.327217,141.471069 53.994217,141.471069 
	C54.733742,136.294067 50.912113,135.700745 46.992374,134.259705 
M83.701576,133.376678 
	C73.019646,134.619247 70.829712,135.913071 70.527153,141.300507 
	C78.191612,141.300507 85.839363,141.300507 93.575417,141.300507 
	C92.229340,134.730591 90.590103,133.359406 83.701576,133.376678 
M73.763245,102.919899 
	C66.254883,103.822670 58.746517,104.725449 51.238155,105.628227 
	C51.169334,106.194832 51.100513,106.761436 51.031693,107.328041 
	C52.357269,108.444832 53.556076,110.273697 55.033638,110.536728 
	C58.596050,111.170914 62.288822,111.230881 65.929054,111.231239 
	C70.843124,111.231728 73.764496,108.854805 73.763245,102.919899 
M66.339760,77.026558 
	C60.263290,77.026558 54.186821,77.026558 47.569191,77.026558 
	C49.824425,82.390327 54.693687,80.979042 58.519798,81.117134 
	C64.909065,81.347733 71.512573,81.688332 76.948219,77.794815 
	C76.836258,77.289803 76.724297,76.784782 76.612328,76.279762 
	C73.503204,76.517693 70.394081,76.755623 66.339760,77.026558 
M16.744457,36.195301 
	C14.152414,33.862438 12.958259,35.682339 13.065168,37.920910 
	C13.285446,42.533276 13.901874,47.153282 14.774481,51.689510 
	C14.996295,52.842594 16.790560,53.693199 18.589312,55.354050 
	C18.044600,48.157959 17.619297,42.539383 16.744457,36.195301 
M110.193825,45.477650 
	C109.703278,42.865635 111.648155,39.379181 106.932442,37.666245 
	C106.137154,44.311852 105.379265,50.644955 104.509148,57.915886 
	C110.346062,55.244911 109.518921,50.461399 110.193825,45.477650 
M80.812408,75.251709 
	C80.487701,76.268265 80.163002,77.284828 79.724602,78.657379 
	C90.119835,77.328316 90.119835,77.328316 89.242043,73.176575 
	C86.688339,73.782600 84.132347,74.389175 80.812408,75.251709 
z"/>
<path fill="#D9E2E8" opacity="1.000000" stroke="none" 
	d="
M80.903801,17.003622 
	C82.058334,17.003622 83.212860,17.003622 84.616257,17.003622 
	C84.790337,15.636031 84.965263,14.261724 85.139610,12.892035 
	C97.861916,14.322123 100.194061,16.535612 102.327354,28.675228 
	C104.233040,39.519669 103.175636,50.094940 99.189514,60.775093 
	C97.732018,60.682911 96.849861,60.311474 96.056633,59.570412 
	C96.690033,51.819546 97.955673,44.402863 97.595177,37.066082 
	C97.151337,28.033119 94.551689,25.656040 85.600502,23.829849 
	C69.910599,20.628845 54.164585,20.689280 38.456345,23.797880 
	C36.356262,24.213478 33.969109,24.658278 32.403191,25.934254 
	C30.244219,27.693476 27.566517,30.070898 27.180828,32.510708 
	C26.123772,39.197487 26.148434,46.055264 25.459850,52.729469 
	C24.617668,51.888027 24.060503,51.162460 23.491459,50.421421 
	C23.038334,51.272636 22.589714,52.115387 22.141090,52.958138 
	C19.429287,42.696716 20.214407,32.522511 22.773392,22.356030 
	C24.919159,13.831203 32.577629,14.750441 39.398109,12.027588 
	C37.415482,17.792889 40.456654,18.273876 44.093338,18.197723 
	C47.089325,18.134989 50.086685,18.137949 53.999992,18.102030 
	C59.062431,18.089857 63.212627,18.198193 67.352318,18.036915 
	C69.332474,17.959770 71.292725,17.371473 73.671356,17.143002 
	C76.355087,17.182083 78.629448,17.092854 80.903801,17.003622 
z"/>
<path fill="#CDD5E4" opacity="1.000000" stroke="none" 
	d="
M36.285576,90.456894 
	C40.731686,89.319550 45.127930,87.904495 49.633003,87.095474 
	C64.854309,84.362007 80.131966,81.939613 95.339172,79.133293 
	C97.479263,78.738365 99.854996,77.289703 101.251846,75.606812 
	C106.893806,68.809555 114.988503,67.486694 123.316933,73.113014 
	C115.212921,74.972961 104.651405,75.335472 109.186813,87.267044 
	C112.147339,95.055504 119.843521,92.334885 126.254372,91.069122 
	C123.055481,97.513634 114.213600,101.210373 108.616562,97.623688 
	C105.823586,95.833893 103.611343,91.677872 103.012962,88.263298 
	C102.100151,83.054428 100.943207,81.248802 95.306129,82.167870 
	C81.192131,84.468994 67.106781,86.946098 53.011578,89.362114 
	C48.588367,90.120285 44.170345,90.908745 38.942413,91.414444 
	C37.518444,90.915993 36.902012,90.686447 36.285576,90.456894 
z"/>
<path fill="#CFD6E6" opacity="1.000000" stroke="none" 
	d="
M82.115784,95.983719 
	C80.771881,96.685127 79.497246,97.772125 78.073288,98.027954 
	C64.665581,100.436790 51.213554,102.603531 37.826889,105.119835 
	C35.823002,105.496506 33.633808,106.941841 32.312275,108.539574 
	C26.493988,115.573853 17.874407,116.840645 10.265970,110.962097 
	C16.113651,109.982788 22.288815,109.959152 24.993265,103.986794 
	C25.759781,102.294067 25.420538,99.663246 24.699059,97.808617 
	C21.288542,89.041550 14.095203,92.215202 7.695586,92.956818 
	C9.830819,87.533585 14.308296,85.307098 19.543217,86.912659 
	C23.508158,88.128731 27.474522,89.340157 31.838919,91.030563 
	C32.488255,91.982094 32.738918,92.456726 32.989582,92.931358 
	C30.559452,95.243088 29.387691,97.728004 32.518898,101.239868 
	C34.567745,101.921669 36.072952,102.429276 37.453171,102.196335 
	C49.313702,100.194572 61.151646,98.058998 72.996338,95.963387 
	C75.393898,95.635506 77.791466,95.307625 80.742737,95.198364 
	C81.569565,95.605896 81.842674,95.794807 82.115784,95.983719 
z"/>
<path fill="#9AA4B8" opacity="1.000000" stroke="none" 
	d="
M33.201817,98.556046 
	C34.365536,97.266151 35.365398,95.066704 36.717602,94.823105 
	C56.355309,91.285454 76.032303,87.960777 95.731445,84.780609 
	C97.059067,84.566284 98.639053,85.915268 100.101669,86.537155 
	C98.854149,87.587387 97.740250,89.293045 96.336960,89.579117 
	C88.520508,91.172539 80.633919,92.421898 71.967911,93.875076 
	C60.541492,95.738838 49.931385,97.601463 39.283760,99.216805 
	C37.334717,99.512497 35.233036,98.802055 33.201817,98.556046 
z"/>
<path fill="#C3CDDD" opacity="1.000000" stroke="none" 
	d="
M95.967705,59.940041 
	C96.849861,60.311474 97.732018,60.682911 98.984421,61.082642 
	C98.987518,61.874405 98.620377,62.637878 97.775352,63.773590 
	C96.578232,65.159523 95.858994,66.173218 95.139755,67.186913 
	C95.139755,67.186913 95.076683,67.064651 94.728065,67.093147 
	C89.461784,68.415359 84.528511,69.653999 79.637009,71.040039 
	C78.351936,71.404167 77.196259,72.224930 75.981163,72.835999 
	C75.817299,72.891258 75.653427,72.946510 74.900856,72.727081 
	C65.995003,72.362373 57.677906,72.262344 49.360508,72.210236 
	C48.918388,72.207458 48.473732,72.609123 48.030258,72.822510 
	C43.921844,71.944611 39.813431,71.066719 35.234444,69.696838 
	C32.760273,68.549240 30.756678,67.893631 28.753082,67.238014 
	C28.753082,67.238014 28.914431,67.114464 28.838783,66.833099 
	C27.751606,65.778847 26.740076,65.005966 25.728546,64.233086 
	C25.728546,64.233086 25.914646,64.006027 25.895741,63.737648 
	C26.286757,62.231201 26.696678,60.993137 27.389494,59.887695 
	C28.447126,60.695148 29.221863,61.369976 30.158909,62.231911 
	C30.561102,62.654217 30.839218,62.828365 31.369167,62.970280 
	C31.582771,62.999096 31.990355,63.139462 32.108829,63.455013 
	C33.215565,64.178024 34.203831,64.585480 35.454292,65.242081 
	C39.480747,66.357796 43.244999,67.224350 47.231270,68.391159 
	C54.739704,71.798187 62.359806,71.529854 69.907959,70.420799 
	C74.020264,69.816574 77.979271,68.169075 82.159912,66.910263 
	C82.312401,66.828423 82.655022,66.877556 82.903999,66.794861 
	C83.433151,66.506729 83.713326,66.301285 84.274727,66.010101 
	C84.947525,65.915878 85.339104,65.907394 86.137405,65.920761 
	C89.000664,64.546730 91.457199,63.150864 94.052727,61.512852 
	C94.783714,60.827148 95.375710,60.383595 95.967705,59.940041 
z"/>
<path fill="#E1EAEC" opacity="1.000000" stroke="none" 
	d="
M69.004677,114.041199 
	C73.291214,112.270790 76.053551,109.476486 76.645401,104.530663 
	C77.097549,100.752289 80.218155,99.864044 83.438766,101.974678 
	C85.304077,103.197105 87.426796,104.026764 89.589615,105.111374 
	C90.119987,108.507927 88.643570,111.077881 85.145485,112.147423 
	C80.132751,113.680061 75.039345,114.948814 69.526642,115.976913 
	C69.050156,115.096123 69.027420,114.568665 69.004677,114.041199 
z"/>
<path fill="#78BDD4" opacity="1.000000" stroke="none" 
	d="
M47.384098,134.373810 
	C50.912113,135.700745 54.733742,136.294067 53.994217,141.471069 
	C46.327217,141.471069 38.838448,141.471069 31.324684,141.471069 
	C31.807785,135.260498 34.065979,133.051178 39.608761,133.336563 
	C42.079262,133.463776 44.531723,133.941223 47.384098,134.373810 
z"/>
<path fill="#78BDD4" opacity="1.000000" stroke="none" 
	d="
M84.119171,133.352570 
	C90.590103,133.359406 92.229340,134.730591 93.575417,141.300507 
	C85.839363,141.300507 78.191612,141.300507 70.527153,141.300507 
	C70.829712,135.913071 73.019646,134.619247 84.119171,133.352570 
z"/>
<path fill="#80C2D7" opacity="1.000000" stroke="none" 
	d="
M73.848869,103.304665 
	C73.764496,108.854805 70.843124,111.231728 65.929054,111.231239 
	C62.288822,111.230881 58.596050,111.170914 55.033638,110.536728 
	C53.556076,110.273697 52.357269,108.444832 51.031693,107.328041 
	C51.100513,106.761436 51.169334,106.194832 51.238155,105.628227 
	C58.746517,104.725449 66.254883,103.822670 73.848869,103.304665 
z"/>
<path fill="#DCE5EA" opacity="1.000000" stroke="none" 
	d="
M68.543289,113.970741 
	C69.027420,114.568665 69.050156,115.096123 69.097610,116.018799 
	C57.214478,118.162819 46.049854,116.413498 35.841194,110.164719 
	C35.845310,109.664665 35.849422,109.164619 35.853539,108.664566 
	C39.482727,108.002014 43.105301,107.297310 46.748695,106.725243 
	C47.258083,106.645264 48.200497,107.075546 48.384922,107.507607 
	C51.632984,115.117004 58.359013,113.963043 64.600342,114.021065 
	C65.760391,114.031853 66.921356,113.943108 68.543289,113.970741 
z"/>
<path fill="#E9F2F4" opacity="1.000000" stroke="none" 
	d="
M49.954273,131.568207 
	C45.699856,130.948944 41.445438,130.329666 36.709007,129.640213 
	C36.519764,126.145409 36.324677,122.542625 36.579548,118.469833 
	C45.008183,117.974930 48.191307,121.316559 49.954273,131.568207 
z"/>
<path fill="#E7F0F3" opacity="1.000000" stroke="none" 
	d="
M88.225075,117.906975 
	C88.225075,121.808701 88.225075,125.710434 88.225075,129.539505 
	C83.621651,130.232941 79.756927,130.815094 75.445137,131.016388 
	C75.861328,121.260033 79.416595,117.838737 88.225075,117.906975 
z"/>
<path fill="#68BAD7" opacity="1.000000" stroke="none" 
	d="
M43.882496,11.836485 
	C55.685146,9.047503 67.514801,9.410799 79.496384,12.055681 
	C78.792458,13.036864 77.956024,13.884136 77.110176,13.893643 
	C67.235703,14.004636 57.358658,14.064255 47.485783,13.911640 
	C46.274284,13.892915 45.083096,12.560248 43.882496,11.836485 
z"/>
<path fill="#B6C0D4" opacity="1.000000" stroke="none" 
	d="
M88.376877,117.632904 
	C79.416595,117.838737 75.861328,121.260033 75.018318,131.066437 
	C73.856407,132.030136 72.674248,132.562927 70.919014,133.354004 
	C69.850761,128.821457 68.861000,124.621986 67.913605,120.602226 
	C75.024872,118.629631 81.631454,116.797020 88.528687,114.883797 
	C88.528687,115.536362 88.528687,116.447594 88.376877,117.632904 
z"/>
<path fill="#B9C2D6" opacity="1.000000" stroke="none" 
	d="
M50.222221,131.767487 
	C48.191307,121.316559 45.008183,117.974930 36.627174,118.025757 
	C36.224846,116.963051 36.224846,115.874428 36.224846,115.002495 
	C42.910080,116.835297 49.415596,118.618820 56.570057,120.580261 
	C55.739594,124.414589 54.848381,128.529434 53.878983,133.005249 
	C52.578941,132.606857 51.534557,132.286804 50.222221,131.767487 
z"/>
<path fill="#77AFC1" opacity="1.000000" stroke="none" 
	d="
M43.547653,11.895433 
	C45.083096,12.560248 46.274284,13.892915 47.485783,13.911640 
	C57.358658,14.064255 67.235703,14.004636 77.110176,13.893643 
	C77.956024,13.884136 78.792458,13.036864 79.851944,12.239744 
	C80.420609,13.373354 80.770592,14.845985 81.012192,16.661119 
	C78.629448,17.092854 76.355087,17.182083 73.235092,17.093718 
	C66.254471,16.975119 60.119495,17.034115 53.984520,17.093111 
	C50.051407,16.529617 46.118294,15.966125 41.431526,15.294657 
	C42.032131,14.168397 42.622471,13.061389 43.547653,11.895433 
z"/>
<path fill="#58AEC1" opacity="1.000000" stroke="none" 
	d="
M66.812363,77.010056 
	C70.394081,76.755623 73.503204,76.517693 76.612328,76.279762 
	C76.724297,76.784782 76.836258,77.289803 76.948219,77.794815 
	C71.512573,81.688332 64.909065,81.347733 58.519798,81.117134 
	C54.693687,80.979042 49.824425,82.390327 47.569191,77.026558 
	C54.186821,77.026558 60.263290,77.026558 66.812363,77.010056 
z"/>
<path fill="#2A3141" opacity="1.000000" stroke="none" 
	d="
M33.065727,99.209312 
	C35.233036,98.802055 37.334717,99.512497 39.283760,99.216805 
	C49.931385,97.601463 60.541492,95.738838 71.586060,93.992554 
	C72.256210,94.507927 72.504791,94.991989 72.874863,95.719711 
	C61.151646,98.058998 49.313702,100.194572 37.453171,102.196335 
	C36.072952,102.429276 34.567745,101.921669 32.883888,101.462173 
	C32.741409,100.732162 32.835522,100.297371 33.065727,99.209312 
z"/>
<path fill="#64B4D1" opacity="1.000000" stroke="none" 
	d="
M16.969227,36.558052 
	C17.619297,42.539383 18.044600,48.157959 18.589312,55.354050 
	C16.790560,53.693199 14.996295,52.842594 14.774481,51.689510 
	C13.901874,47.153282 13.285446,42.533276 13.065168,37.920910 
	C12.958259,35.682339 14.152414,33.862438 16.969227,36.558052 
z"/>
<path fill="#63B2CF" opacity="1.000000" stroke="none" 
	d="
M110.178749,45.934570 
	C109.518921,50.461399 110.346062,55.244911 104.509148,57.915886 
	C105.379265,50.644955 106.137154,44.311852 106.932442,37.666245 
	C111.648155,39.379181 109.703278,42.865635 110.178749,45.934570 
z"/>
<path fill="#D6DFE4" opacity="1.000000" stroke="none" 
	d="
M46.464706,80.713097 
	C47.645851,81.567657 48.826996,82.422211 50.674900,83.759171 
	C46.336132,84.477913 42.676208,85.084198 38.916180,85.707069 
	C37.378738,82.537804 35.910645,79.511490 34.941086,76.213455 
	C39.114655,77.532188 42.789680,79.122643 46.464706,80.713097 
z"/>
<path fill="#B3BDD0" opacity="1.000000" stroke="none" 
	d="
M46.330826,80.372032 
	C42.789680,79.122643 39.114655,77.532188 35.067722,75.886986 
	C35.176022,75.053802 35.877773,73.538597 36.103493,73.606476 
	C40.048256,74.792656 45.206085,74.215172 46.330826,80.372032 
z"/>
<path fill="#CDD6E0" opacity="1.000000" stroke="none" 
	d="
M48.438541,72.944061 
	C48.473732,72.609123 48.918388,72.207458 49.360508,72.210236 
	C57.677906,72.262344 65.995003,72.362373 74.646133,72.677979 
	C66.269012,72.957588 57.557919,73.011597 48.438541,72.944061 
z"/>
<path fill="#B0B9CD" opacity="1.000000" stroke="none" 
	d="
M81.194382,75.123734 
	C84.132347,74.389175 86.688339,73.782600 89.242043,73.176575 
	C90.119835,77.328316 90.119835,77.328316 79.724602,78.657379 
	C80.163002,77.284828 80.487701,76.268265 81.194382,75.123734 
z"/>
<path fill="#C1CAD4" opacity="1.000000" stroke="none" 
	d="
M27.106602,59.755074 
	C26.696678,60.993137 26.286757,62.231201 25.813538,63.859070 
	C24.520691,60.742470 23.291142,57.236073 22.101341,53.343903 
	C22.589714,52.115387 23.038334,51.272636 23.491459,50.421421 
	C24.060503,51.162460 24.617668,51.888027 25.595932,53.045521 
	C26.380220,55.569988 26.743412,57.662533 27.106602,59.755074 
z"/>
<path fill="#BEC7D0" opacity="1.000000" stroke="none" 
	d="
M76.386276,72.876038 
	C77.196259,72.224930 78.351936,71.404167 79.637009,71.040039 
	C84.528511,69.653999 89.461784,68.415359 94.779976,67.138275 
	C89.050804,69.075302 82.921097,70.995682 76.386276,72.876038 
z"/>
<path fill="#2D3543" opacity="1.000000" stroke="none" 
	d="
M53.986946,17.301464 
	C60.119495,17.034115 66.254471,16.975119 72.825714,16.965405 
	C71.292725,17.371473 69.332474,17.959770 67.352318,18.036915 
	C63.212627,18.198193 59.062431,18.089857 54.453777,18.009407 
	C53.991005,17.926550 53.989376,17.509817 53.986946,17.301464 
z"/>
<path fill="#B3BCCF" opacity="1.000000" stroke="none" 
	d="
M33.035023,92.955215 
	C32.738918,92.456726 32.488255,91.982094 32.119194,91.266647 
	C33.232391,90.873146 34.463982,90.720467 35.990578,90.512344 
	C36.902012,90.686447 37.518444,90.915993 38.558563,91.398903 
	C37.296593,92.035233 35.610935,92.418198 33.512352,92.856689 
	C33.099422,92.912231 33.129940,92.889145 33.129940,92.889145 
	C33.129940,92.889145 33.080463,92.979080 33.035023,92.955215 
z"/>
<path fill="#C1CAD4" opacity="1.000000" stroke="none" 
	d="
M28.961969,67.510155 
	C30.756678,67.893631 32.760273,68.549240 34.886284,69.529037 
	C33.062752,69.162903 31.116806,68.472595 28.961969,67.510155 
z"/>
<path fill="#BEC7D0" opacity="1.000000" stroke="none" 
	d="
M95.450943,67.092827 
	C95.858994,66.173218 96.578232,65.159523 97.626305,64.067078 
	C97.224129,64.991806 96.493126,65.995270 95.450943,67.092827 
z"/>
<path fill="#C1CAD4" opacity="1.000000" stroke="none" 
	d="
M25.795616,64.563782 
	C26.740076,65.005966 27.751606,65.778847 28.774847,66.912064 
	C27.811934,66.479767 26.837309,65.687119 25.795616,64.563782 
z"/>
<path fill="#CFD6E6" opacity="1.000000" stroke="none" 
	d="
M33.298828,92.956635 
	C33.129940,92.889145 33.099422,92.912231 33.079765,92.909767 
	C33.195976,92.946243 33.331844,92.985184 33.298828,92.956635 
z"/>
<path fill="#B3BCCF" opacity="1.000000" stroke="none" 
	d="
M82.252754,95.624458 
	C81.842674,95.794807 81.569565,95.605896 81.147499,95.214706 
	C81.462273,95.096672 81.926003,95.180939 82.252754,95.624458 
z"/>
<path fill="#1E2536" opacity="1.000000" stroke="none" 
	d="
M27.389496,59.887695 
	C26.743412,57.662533 26.380220,55.569988 25.880949,53.161400 
	C26.148434,46.055264 26.123772,39.197487 27.180828,32.510708 
	C27.566517,30.070898 30.244219,27.693476 32.403191,25.934254 
	C33.969109,24.658278 36.356262,24.213478 38.456345,23.797880 
	C54.164585,20.689280 69.910599,20.628845 85.600502,23.829849 
	C94.551689,25.656040 97.151337,28.033119 97.595177,37.066082 
	C97.955673,44.402863 96.690033,51.819546 96.056633,59.570415 
	C95.375710,60.383595 94.783714,60.827148 93.692200,61.574638 
	C90.705353,63.218685 88.218018,64.558800 85.730682,65.898911 
	C85.339104,65.907394 84.947525,65.915878 83.987755,65.992462 
	C83.164719,66.332893 82.909866,66.605225 82.655022,66.877556 
	C82.655022,66.877556 82.312401,66.828423 81.746017,66.868439 
	C69.878098,69.862946 58.469318,69.717857 47.009254,68.090904 
	C43.244999,67.224350 39.480747,66.357796 35.379120,64.913910 
	C34.024612,63.937542 33.007484,63.538502 31.990355,63.139458 
	C31.990355,63.139462 31.582771,62.999096 31.255219,62.711678 
	C30.617311,62.297779 30.306957,62.171291 29.996601,62.044807 
	C29.221863,61.369976 28.447126,60.695148 27.389496,59.887695 
M56.980293,65.802948 
	C60.627308,65.764908 64.274323,65.726875 68.576904,65.827354 
	C69.390625,65.574257 70.204353,65.321159 71.753784,65.043732 
	C72.484230,64.954941 73.214668,64.866150 74.734970,64.850967 
	C79.309769,63.505077 83.984604,62.416759 88.414040,60.696568 
	C90.406792,59.922672 93.195442,58.047428 93.401619,56.394791 
	C94.116722,50.662876 93.857323,44.809391 93.934341,38.370667 
	C93.878067,37.952877 93.821793,37.535091 93.915016,36.315083 
	C92.959045,34.190506 92.003082,32.065926 90.473076,29.489458 
	C73.840668,23.523176 56.877151,24.049786 39.897758,27.344299 
	C36.781105,27.949024 34.024220,30.407963 30.572250,32.593502 
	C30.081150,35.021000 29.260672,37.433784 29.151501,39.878338 
	C28.339422,58.062370 28.686918,59.525814 44.554905,63.817982 
	C44.710228,63.859993 44.885338,63.828835 45.689636,63.956856 
	C46.121922,63.988514 46.554207,64.020172 47.482456,64.485878 
	C48.341461,64.587196 49.200470,64.688515 50.784946,64.898895 
	C51.515182,64.966438 52.245415,65.033974 53.487339,65.516731 
	C54.350368,65.575745 55.213402,65.634750 56.980293,65.802948 
z"/>
<path fill="#C8D1DA" opacity="1.000000" stroke="none" 
	d="
M47.231270,68.391159 
	C58.469318,69.717857 69.878098,69.862946 81.593521,66.950287 
	C77.979271,68.169075 74.020264,69.816574 69.907959,70.420799 
	C62.359806,71.529854 54.739704,71.798187 47.231270,68.391159 
z"/>
<path fill="#C8D1DA" opacity="1.000000" stroke="none" 
	d="
M86.137405,65.920753 
	C88.218018,64.558800 90.705353,63.218685 93.553215,61.816784 
	C91.457199,63.150864 89.000664,64.546730 86.137405,65.920753 
z"/>
<path fill="#C1CAD4" opacity="1.000000" stroke="none" 
	d="
M32.108829,63.455009 
	C33.007484,63.538502 34.024612,63.937542 35.116917,64.664764 
	C34.203831,64.585480 33.215565,64.178024 32.108829,63.455009 
z"/>
<path fill="#C1CAD4" opacity="1.000000" stroke="none" 
	d="
M30.158909,62.231911 
	C30.306957,62.171291 30.617311,62.297779 31.041615,62.682861 
	C30.839218,62.828365 30.561102,62.654217 30.158909,62.231911 
z"/>
<path fill="#C8D1DA" opacity="1.000000" stroke="none" 
	d="
M82.903999,66.794861 
	C82.909866,66.605225 83.164719,66.332893 83.706535,66.078201 
	C83.713326,66.301285 83.433151,66.506729 82.903999,66.794861 
z"/>
<path fill="#5A6B95" opacity="1.000000" stroke="none" 
	d="
M93.765526,37.117302 
	C93.821793,37.535091 93.878067,37.952877 93.716980,38.998978 
	C92.240639,47.960300 91.922630,48.262329 83.560928,49.002041 
	C83.068710,49.045582 82.570778,49.024727 82.031723,48.573017 
	C81.974289,45.948860 81.907715,43.784256 81.959610,41.622494 
	C82.033661,38.538116 81.742683,35.933540 77.636269,35.862633 
	C73.628075,35.793415 72.953110,38.150253 73.062157,41.369492 
	C73.157883,44.195770 73.171684,47.024822 72.779022,49.905319 
	C65.191795,49.950386 58.047203,49.942791 50.982098,49.481606 
	C51.099453,46.063335 51.126011,43.098454 51.178448,40.134026 
	C51.228905,37.281567 49.917458,35.903660 46.994705,35.913570 
	C44.047382,35.923565 42.853760,37.370796 42.859535,40.196133 
	C42.865601,43.159630 42.744400,46.123386 42.280212,49.076233 
	C40.568108,48.874302 39.235130,48.769386 37.944328,48.477783 
	C30.601645,46.819000 30.012571,45.808525 31.114822,38.209465 
	C31.408251,36.186535 31.121595,34.079460 31.101271,32.011021 
	C34.024220,30.407963 36.781105,27.949024 39.897758,27.344299 
	C56.877151,24.049786 73.840668,23.523176 90.805542,30.094006 
	C92.013847,32.838139 92.889687,34.977722 93.765526,37.117302 
z"/>
<path fill="#414D70" opacity="1.000000" stroke="none" 
	d="
M30.836761,32.302261 
	C31.121595,34.079460 31.408251,36.186535 31.114822,38.209465 
	C30.012571,45.808525 30.601645,46.819000 37.944328,48.477783 
	C39.235130,48.769386 40.568108,48.874302 42.520004,49.381599 
	C45.739807,49.776909 48.321213,49.856052 50.902615,49.935192 
	C58.047203,49.942791 65.191795,49.950386 73.098785,50.115326 
	C76.880371,51.723427 79.716675,51.961605 82.075508,49.033836 
	C82.570778,49.024727 83.068710,49.045582 83.560928,49.002041 
	C91.922630,48.262329 92.240639,47.960300 93.734146,39.314724 
	C93.857323,44.809391 94.116722,50.662876 93.401619,56.394791 
	C93.195442,58.047428 90.406792,59.922672 88.414040,60.696568 
	C83.984604,62.416759 79.309769,63.505077 74.461670,64.523956 
	C75.464272,63.469803 76.740173,62.742672 78.202103,61.993813 
	C78.571922,61.833992 78.755707,61.695904 78.939491,61.557816 
	C78.829887,61.518707 78.675499,61.413528 78.618568,61.452122 
	C78.392563,61.605339 78.197014,61.803478 77.541954,61.980038 
	C66.144302,61.975109 55.194881,61.975109 44.339134,61.975109 
	C44.472279,62.322285 44.761745,63.077061 45.051212,63.831837 
	C44.885338,63.828835 44.710228,63.859993 44.554905,63.817982 
	C28.686918,59.525814 28.339422,58.062370 29.151501,39.878338 
	C29.260672,37.433784 30.081150,35.021000 30.836761,32.302261 
M59.203186,55.614902 
	C57.575909,55.172112 55.948631,54.729317 54.321358,54.286526 
	C56.033943,58.526630 59.481949,58.956337 62.798264,58.602776 
	C65.317886,58.334152 67.719231,56.956181 70.173203,56.071808 
	C69.986900,55.610287 69.800598,55.148766 69.614304,54.687244 
	C66.408302,55.042625 63.202309,55.398003 59.203186,55.614902 
z"/>
<path fill="#4F5D85" opacity="1.000000" stroke="none" 
	d="
M45.370422,63.894348 
	C44.761745,63.077061 44.472279,62.322285 44.339134,61.975109 
	C55.194881,61.975109 66.144302,61.975109 77.547501,61.988117 
	C78.001274,62.001125 78.016075,62.015533 78.016075,62.015533 
	C76.740173,62.742672 75.464272,63.469803 74.066742,64.487152 
	C73.214668,64.866150 72.484230,64.954941 71.181473,64.839157 
	C69.713211,64.986000 68.817276,65.337418 67.921333,65.688835 
	C64.274323,65.726875 60.627308,65.764908 56.414330,65.484756 
	C54.890793,65.144882 53.933220,65.123199 52.975651,65.101517 
	C52.245415,65.033974 51.515182,64.966438 50.320740,64.570206 
	C48.899849,64.178284 47.943172,64.115059 46.986492,64.051826 
	C46.554207,64.020172 46.121922,63.988514 45.370422,63.894348 
z"/>
<path fill="#414D70" opacity="1.000000" stroke="none" 
	d="
M93.840271,36.716194 
	C92.889687,34.977722 92.013847,32.838139 91.092560,30.319950 
	C92.003082,32.065926 92.959045,34.190506 93.840271,36.716194 
z"/>
<path fill="#414D70" opacity="1.000000" stroke="none" 
	d="
M68.249115,65.758095 
	C68.817276,65.337418 69.713211,64.986000 70.813614,64.851318 
	C70.204353,65.321159 69.390625,65.574257 68.249115,65.758095 
z"/>
<path fill="#414D70" opacity="1.000000" stroke="none" 
	d="
M53.231495,65.309128 
	C53.933220,65.123199 54.890793,65.144882 55.962395,65.430161 
	C55.213402,65.634750 54.350368,65.575745 53.231495,65.309128 
z"/>
<path fill="#414D70" opacity="1.000000" stroke="none" 
	d="
M47.234474,64.268852 
	C47.943172,64.115059 48.899849,64.178284 49.958000,64.515671 
	C49.200470,64.688515 48.341461,64.587196 47.234474,64.268852 
z"/>
<path fill="#95CAD9" opacity="1.000000" stroke="none" 
	d="
M82.031723,48.573017 
	C79.716675,51.961605 76.880371,51.723427 73.541428,50.062660 
	C73.171684,47.024822 73.157883,44.195770 73.062157,41.369492 
	C72.953110,38.150253 73.628075,35.793415 77.636269,35.862633 
	C81.742683,35.933540 82.033661,38.538116 81.959610,41.622494 
	C81.907715,43.784256 81.974289,45.948860 82.031723,48.573017 
z"/>
<path fill="#98D0DD" opacity="1.000000" stroke="none" 
	d="
M50.982098,49.481606 
	C48.321213,49.856052 45.739807,49.776909 42.918610,49.392399 
	C42.744400,46.123386 42.865601,43.159630 42.859535,40.196133 
	C42.853760,37.370796 44.047382,35.923565 46.994705,35.913570 
	C49.917458,35.903660 51.228905,37.281567 51.178448,40.134026 
	C51.126011,43.098454 51.099453,46.063335 50.982098,49.481606 
z"/>
<path fill="#7AB5C9" opacity="1.000000" stroke="none" 
	d="
M59.599751,55.684143 
	C63.202309,55.398003 66.408302,55.042625 69.614304,54.687244 
	C69.800598,55.148766 69.986900,55.610287 70.173203,56.071808 
	C67.719231,56.956181 65.317886,58.334152 62.798264,58.602776 
	C59.481949,58.956337 56.033943,58.526630 54.321358,54.286526 
	C55.948631,54.729317 57.575909,55.172112 59.599751,55.684143 
z"/>
<path fill="#4F5D85" opacity="1.000000" stroke="none" 
	d="
M77.995728,61.993046 
	C78.197014,61.803478 78.392563,61.605339 78.618568,61.452122 
	C78.675499,61.413528 78.829887,61.518707 78.939491,61.557816 
	C78.755707,61.695904 78.571922,61.833992 78.202103,61.993809 
	C78.016075,62.015533 78.001274,62.001125 77.995728,61.993046 
z"/>
</svg>